<?xml version="1.0" encoding="UTF-8"?>
<svg id="Layer_1" data-name="Layer 1" xmlns="http://www.w3.org/2000/svg" version="1.1" viewBox="0 0 765.4 430">
  <defs>
    <style>
      .cls-1 {
        fill: #000;
      }

      .cls-1, .cls-2 {
        stroke-width: 0px;
      }

      .cls-2 {
        fill: #fd0;
      }
    </style>
  </defs>
  <path class="cls-1" d="M382.7,0c211.3,0,382.7,96.3,382.7,215s-171.3,215-382.7,215S0,333.7,0,215,171.3,0,382.7,0h0Z"/>
  <path class="cls-2" d="M513.3,65.6s35.6,49.3,19.3,74.9c-12,18.7-32.1,23.4-49.1,23.4-49.8,0-51.6-28.3-51.6-28.3l-6.8-86.2-23.3,37h-38.3l-23.3-37-6.8,86.2s-1.8,28.3-51.6,28.3-37.1-4.7-49.1-23.4c-16.4-25.6,19.3-74.9,19.3-74.9-98.1,27.1-165.6,83.8-165.6,149.4s41.2,97,105.9,127.5c-7.7-10.8-26.5-42.3-5.3-64.6,26-27.4,67.1-10.9,84.9,16.4,0,0,1.4-31.5,32.8-27.4,31.5,4.1,72.5,41.1,78,84.9,5.5-43.8,46.5-80.8,78-84.9,31.5-4.1,32.8,27.4,32.8,27.4,17.8-27.4,58.9-43.8,84.9-16.4,21.2,22.3,2.3,53.8-5.3,64.6,64.7-30.5,105.9-76.3,105.9-127.5s-67.5-122.3-165.6-149.4h0ZM382.7,21.4c190.3,0,344.5,86.7,344.5,193.6s-154.3,193.6-344.5,193.6S38.1,321.9,38.1,215,192.4,21.4,382.7,21.4h0Z"/>
</svg>